<?xml version="1.0" standalone="no"?>
<!DOCTYPE svg PUBLIC "-//W3C//DTD SVG 1.0//EN" "http://www.w3.org/TR/2001/REC-SVG-20010904/DTD/svg10.dtd">
<svg xmlns="http://www.w3.org/2000/svg" xmlns:xlink="http://www.w3.org/1999/xlink" id="body_1" width="600" height="120">

<g transform="matrix(0.24 0 0 0.24 0 0)">
	<g>
		<g transform="matrix(1 0 0 1 15 32)">
            <path d="M2321.7466 163.47504C 2372.634 163.47504 2406.1694 197.59436 2406.1694 244.8774L2406.1694 244.8774L2234.3013 244.8774C 2234.3013 197.59436 2270.8562 163.47504 2321.7466 163.47504zM2322.9644 385.54883C 2267.2986 385.54883 2234.3472 343.04422 2234.3472 291.57312L2234.3472 291.57312L2469 291.57312C 2469 182.63179 2420.5479 113.759735 2321.796 113.759735C 2229.5718 113.759735 2171.4707 176.05147 2171.4707 275.38983C 2171.4707 371.16745 2229.5718 437.01993 2324.7202 437.01993C 2403.199 437.01993 2448.7207 392.7134 2464.2214 334.65582L2464.2214 334.65582L2401.345 334.65582C 2395.9822 353.2314 2375.0203 385.54883 2322.9644 385.54883zM2057.1008 428.05038L2120.5618 428.05038L2120.5618 0.03997396L2057.1008 0.03997396L2057.1008 428.05038zM1858.5973 385.38895C 1807.1257 385.38895 1775.4414 342.8874 1775.4414 275.233C 1775.4414 206.99438 1807.1257 165.1232 1858.5973 165.1232C 1913.679 165.1232 1943.0232 215.37354 1943.0232 275.233C 1943.0232 335.09247 1913.679 385.38895 1858.5973 385.38895zM1869.7102 113.759735C 1822.4297 113.759735 1792.5043 135.93298 1776.3177 159.287L1776.3177 159.287L1775.1493 159.287L1775.1493 0.03997396L1712.2695 0.03997396L1712.2695 428.05038L1775.1493 428.05038L1775.1493 392.7134L1776.3177 392.7134C 1792.5043 413.67514 1822.4297 437.01993 1869.7102 437.01993C 1948.0938 437.01993 2006.1951 375.99814 2006.1951 275.38983C 2006.1951 174.83072 1948.0938 113.759735 1869.7102 113.759735zM1653.2981 35.63217C 1653.2981 55.31166 1637.3422 71.26434 1617.6655 71.26434C 1597.9858 71.26434 1582.033 55.31166 1582.033 35.63217C 1582.033 15.952684 1597.9858 0 1617.6655 0C 1637.3422 0 1653.2981 15.952684 1653.2981 35.63217zM1586.2241 428.21027L1649.1039 428.21027L1649.1039 122.301865L1586.2241 122.301865L1586.2241 428.21027zM1473.2627 122.29879L1530.7797 122.29879L1530.7797 173.76372L1473.2627 173.76372L1473.2627 339.5911C 1473.2627 374.34998 1490.0304 378.53802 1530.7797 376.1519L1530.7797 376.1519L1530.7797 427.62604C 1518.2031 430.59332 1504.3597 432.39832 1487.592 432.39832C 1437.3872 432.39832 1409.7987 409.63162 1409.7987 345.00293L1409.7987 345.00293L1409.7987 173.76372L1365.5378 173.76372L1365.5378 122.29879L1409.7987 122.29879L1409.7987 25.927725L1473.2627 25.927725L1473.2627 122.29879zM1200.1055 385.70258C 1149.215 385.70258 1117.5337 343.19797 1117.5337 275.54358C 1117.5337 207.30495 1149.215 165.43376 1200.1055 165.43376C 1255.184 165.43376 1284.5283 215.68411 1284.5283 275.54358C 1284.5283 335.40305 1255.184 385.70258 1200.1055 385.70258zM1212.0947 113.91348C 1164.23 113.91348 1134.3014 136.67711 1118.1179 158.22L1118.1179 158.22L1116.9495 158.22L1116.9495 122.29879L1053.4856 122.29879L1053.4824 529L1116.9464 529L1116.9495 391.6956L1118.1179 391.6956C 1134.3014 414.45923 1164.23 437.17368 1212.0947 437.17368C 1289.891 437.17368 1347.9891 376.1519 1347.9891 275.54358C 1347.9891 174.98447 1289.891 113.91348 1212.0947 113.91348zM756.9279 267.79477L824.58606 65.46197L825.7546 65.46197L892.82544 267.79477L756.9279 267.79477zM787.4407 0.19371995L630 428.2072L702.4336 428.2072L737.14056 327.01773L911.93317 327.01773L946.6371 428.2072L1019.0707 428.2072L862.3127 0.19371995L787.4407 0.19371995z" stroke="none" fill="#FFFFFF" fill-rule="nonzero" />
            <path d="M277.1989 100.70733L277.1989 428L352.8003 428L352.8003 276.94208L504 428L504 327.29575L277.1989 100.70733zM352.8003 0L251.99846 0L504 251.76524L504 151.06099L352.8003 0zM0 327.29575L0 428L151.19969 276.94208L151.19969 428L226.80107 428L226.80107 100.70733L0 327.29575zM0 151.06099L0 251.76524L251.99846 0L150.25552 0L0 151.06099" stroke="none" fill="#FFB607" fill-rule="nonzero" />
		</g>
	</g>
</g>
</svg>